<svg width="23" height="23" viewBox="0 0 18 18" fill="none" xmlns="http://www.w3.org/2000/svg">
    <path
        d="M8.95305 10.7647L2.801 16.9168C2.57082 17.147 2.27786 17.2621 1.92213 17.2621C1.5664 17.2621 1.27344 17.147 1.04327 16.9168C0.813087 16.6866 0.697998 16.3937 0.697998 16.0379C0.697998 15.6822 0.813087 15.3892 1.04327 15.1591L7.19532 9.00701L1.04327 2.85495C0.813087 2.62477 0.697998 2.33182 0.697998 1.97609C0.697998 1.62036 0.813087 1.3274 1.04327 1.09722C1.27344 0.867042 1.5664 0.751953 1.92213 0.751953C2.27786 0.751953 2.57082 0.867042 2.801 1.09722L8.95305 7.24928L15.1051 1.09722C15.3353 0.867042 15.6282 0.751953 15.984 0.751953C16.3397 0.751953 16.6327 0.867042 16.8628 1.09722C17.093 1.3274 17.2081 1.62036 17.2081 1.97609C17.2081 2.33182 17.093 2.62477 16.8628 2.85495L10.7108 9.00701L16.8628 15.1591C17.093 15.3892 17.2081 15.6822 17.2081 16.0379C17.2081 16.3937 17.093 16.6866 16.8628 16.9168C16.6327 17.147 16.3397 17.2621 15.984 17.2621C15.6282 17.2621 15.3353 17.147 15.1051 16.9168L8.95305 10.7647Z"
        fill="#06141C" />
</svg>