<svg width="405" height="387" viewBox="0 0 405 387" fill="none" xmlns="http://www.w3.org/2000/svg">
<path d="M211.839 382.378C265.6 395.545 322.179 375.661 357.744 333.269C378.351 308.752 393.426 278.882 400.621 245.095C422.378 142.901 360.934 39.368 260.789 9.38593C151.043 -23.4786 36.5524 40.9129 7.0949 150.85C-15.395 234.783 18.353 320.521 85.1753 368.155C80.0836 358.842 77.3087 348.396 76.9949 336.854C76.4607 319.008 81.8309 299.544 93.0573 278.449L149.921 173.327L94.5914 158.501L114.16 121.681L119.403 111.938L175.022 126.841L177.259 122.537L205.357 69.6798L290.761 75.8932L254.884 143.336L228.413 194.359L168.198 308.905C159.118 326.033 156.975 340.581 161.938 352.492C161.938 352.492 168.929 371.861 211.839 382.378ZM294.919 149.367C318.7 151.146 332.942 175.813 322.591 197.297C316.803 209.269 303.907 216.755 290.597 215.769C266.816 213.99 252.575 189.323 262.925 167.839C268.713 155.868 281.609 148.381 294.919 149.367Z" fill="#092F45"/>
</svg>
