<svg width="41" height="33" viewBox="0 0 41 33" fill="none" xmlns="http://www.w3.org/2000/svg">
<path d="M13.8817 18.7377L14.007 17.9868L13.2845 18.2266C12.6645 18.4324 12.0336 18.5666 11.3763 18.5666H6.88905C3.4419 18.5666 0.617124 15.686 0.617124 12.1213V7.51848C0.617124 3.95372 3.4419 1.07318 6.88905 1.07318H11.3763C14.8234 1.07318 17.6482 3.95372 17.6482 7.51848V16.7241C17.6482 25.3638 10.7964 32.375 2.40182 32.375C1.42609 32.375 0.617124 31.5622 0.617124 30.5325C0.617124 29.5029 1.42608 28.6901 2.40182 28.6901C8.18099 28.6901 12.9426 24.3648 13.8817 18.7377ZM36.3179 18.7377L36.4432 17.9868L35.7206 18.2266C35.1006 18.4324 34.4697 18.5666 33.8124 18.5666H29.3252C25.8781 18.5666 23.0533 15.686 23.0533 12.1213V7.51848C23.0533 3.95372 25.8781 1.07318 29.3252 1.07318H33.8124C37.2596 1.07318 40.0844 3.95372 40.0844 7.51848V16.7241C40.0844 25.3638 33.2326 32.375 24.838 32.375C23.8622 32.375 23.0533 31.5622 23.0533 30.5325C23.0533 29.5029 23.8622 28.6901 24.838 28.6901C30.6171 28.6901 35.3787 24.3648 36.3179 18.7377Z" fill="#2C9D30" stroke="#BFE4F5" stroke-width="0.917843"/>
</svg>
