<svg width="25" height="25" viewBox="0 0 22 22" fill="none" xmlns="http://www.w3.org/2000/svg">
    <path
        d="M10.1129 3.69463C11.3793 3.69347 12.6176 4.06795 13.6712 4.7707C14.7248 5.47345 15.5462 6.47288 16.0317 7.64258C16.5171 8.81227 16.6447 10.0997 16.3984 11.3419C16.152 12.5841 15.5427 13.7254 14.6476 14.6213C13.7526 15.5172 12.6119 16.1275 11.3698 16.375C10.1278 16.6225 8.84033 16.4961 7.67019 16.0117C6.50005 15.5273 5.49987 14.7068 4.79616 13.6539C4.09245 12.6009 3.71683 11.363 3.71683 10.0965C3.72451 8.40202 4.40066 6.77901 5.59833 5.58025C6.796 4.38148 8.41839 3.70385 10.1129 3.69463ZM10.1129 2.49609C8.60967 2.49609 7.1402 2.94185 5.89032 3.777C4.64043 4.61215 3.66626 5.79917 3.091 7.18797C2.51574 8.57677 2.36523 10.105 2.65849 11.5793C2.95176 13.0537 3.67563 14.4079 4.73857 15.4709C5.80151 16.5338 7.15578 17.2577 8.63012 17.5509C10.1045 17.8442 11.6327 17.6937 13.0215 17.1184C14.4103 16.5432 15.5973 15.569 16.4324 14.3191C17.2676 13.0692 17.7133 11.5998 17.7133 10.0965C17.7133 8.08077 16.9126 6.14757 15.4872 4.72221C14.0619 3.29685 12.1287 2.49609 10.1129 2.49609Z"
        fill="#2C9D30" />
    <path
        d="M21.0363 20.2048L16.7274 15.8667L15.8972 16.6911L20.2061 21.0292C20.2602 21.0837 20.3245 21.127 20.3954 21.1566C20.4663 21.1863 20.5423 21.2017 20.6191 21.2019C20.6959 21.2022 20.7721 21.1874 20.8431 21.1582C20.9142 21.1291 20.9788 21.0862 21.0334 21.0321C21.0879 20.9779 21.1312 20.9136 21.1608 20.8427C21.1905 20.7719 21.2059 20.6959 21.2062 20.619C21.2064 20.5422 21.1916 20.4661 21.1624 20.395C21.1333 20.3239 21.0904 20.2593 21.0363 20.2048Z"
        fill="#2C9D30" />
</svg>