<svg width="42" height="30" viewBox="0 0 42 30" fill="none" xmlns="http://www.w3.org/2000/svg">
<path d="M11.8938 0.300293H7.39314C3.67046 0.300293 0.64209 3.11752 0.64209 6.58064V10.7675C0.64209 14.2307 3.67046 17.0479 7.39314 17.0479H11.8938C12.6164 17.0479 13.2996 16.914 13.9528 16.7174C13.0454 21.648 8.44946 25.4217 2.89244 25.4217C1.6486 25.4217 0.64209 26.358 0.64209 27.5151C0.64209 28.6722 1.6486 29.6086 2.89244 29.6086C11.5774 29.6086 18.6449 23.0339 18.6449 14.9544V6.58064C18.6449 3.11752 15.6165 0.300293 11.8938 0.300293ZM34.3974 0.300293H29.8966C26.174 0.300293 23.1456 3.11752 23.1456 6.58064V10.7675C23.1456 14.2307 26.174 17.0479 29.8966 17.0479H34.3974C35.1199 17.0479 35.8031 16.914 36.4563 16.7174C35.5489 21.648 30.953 25.4217 25.3959 25.4217C24.1521 25.4217 23.1456 26.358 23.1456 27.5151C23.1456 28.6722 24.1521 29.6086 25.3959 29.6086C34.081 29.6086 41.1484 23.0339 41.1484 14.9544V6.58064C41.1484 3.11752 38.12 0.300293 34.3974 0.300293Z" fill="#309B34"/>
<path d="M14.4055 16.8007L14.5419 16.0593L13.8201 16.2766C13.1962 16.4645 12.559 16.5876 11.8938 16.5876H7.39314C3.89278 16.5876 1.10239 13.9457 1.10239 10.7675V6.58064C1.10239 3.4025 3.89278 0.760592 7.39314 0.760592H11.8938C15.3942 0.760592 18.1846 3.4025 18.1846 6.58064V14.9544C18.1846 22.7489 11.3551 29.1483 2.89244 29.1483C1.87092 29.1483 1.10239 28.3873 1.10239 27.5151C1.10239 26.643 1.87092 25.882 2.89244 25.882C8.65415 25.882 13.4549 21.9664 14.4055 16.8007ZM36.909 16.8007L37.0454 16.0593L36.3236 16.2766C35.6997 16.4645 35.0625 16.5876 34.3974 16.5876H29.8966C26.3963 16.5876 23.6059 13.9457 23.6059 10.7675V6.58064C23.6059 3.4025 26.3963 0.760592 29.8966 0.760592H34.3974C37.8977 0.760592 40.6881 3.4025 40.6881 6.58064V14.9544C40.6881 22.7489 33.8586 29.1483 25.3959 29.1483C24.3744 29.1483 23.6059 28.3873 23.6059 27.5151C23.6059 26.643 24.3744 25.882 25.3959 25.882C31.1577 25.882 35.9584 21.9664 36.909 16.8007Z" stroke="black" stroke-opacity="0.1" stroke-width="0.920598"/>
</svg>
