<?xml version="1.0" encoding="utf-8"?>
<!-- Generator: Adobe Illustrator 26.0.1, SVG Export Plug-In . SVG Version: 6.00 Build 0)  -->
<svg version="1.1" id="Layer_1" xmlns="http://www.w3.org/2000/svg" xmlns:xlink="http://www.w3.org/1999/xlink" x="0px" y="0px"
	 viewBox="0 0 411.2 88.6" style="enable-background:new 0 0 411.2 88.6;" xml:space="preserve">
<style type="text/css">
	.st0{fill:#40A944;}
	.st1{fill:#FFFFFF;}
</style>
<path class="st0" d="M402.3,85.6H8.9c-3.3,0-6-2.7-6-6V9c0-3.3,2.7-6,6-6h393.3c3.3,0,6,2.7,6,6v70.7
	C408.3,82.9,405.6,85.6,402.3,85.6z"/>
<g id="a">
</g>
<path class="st1" d="M397,44.4c0,1.2,0,2.4,0,3.6c0,3.1-2.1,5.3-5.2,5.3c-1.1,0-2.2,0-3.3,0c-0.4,0-0.7,0.2-0.8,0.6
	c-0.4,1.3-1,2.6-1.6,4c-0.2,0.4-0.1,0.6,0.2,0.9c0.9,0.9,1.7,1.7,2.5,2.6c2,2.1,2,5.2,0.1,7.3c-1.8,1.8-3.5,3.7-5.4,5.5
	c-2.1,2-5.1,2-7.1-0.1c-0.8-0.8-1.7-1.7-2.5-2.5c-0.3-0.3-0.5-0.4-1-0.2c-1.2,0.6-2.5,1.1-3.8,1.6c-0.4,0.2-0.6,0.4-0.6,0.9
	c0,1.1,0,2.3,0,3.4c0,2.9-2.1,5.1-4.9,5.2c-2.6,0.1-5.1,0.1-7.7,0c-2.8-0.1-4.9-2.3-4.9-5.2c0-1.1,0-2.3,0-3.4
	c0-0.4-0.2-0.7-0.6-0.9c-1.3-0.4-2.6-1-3.8-1.6c-0.4-0.2-0.7-0.2-1,0.2c-0.8,0.9-1.7,1.8-2.5,2.6c-1.8,1.8-4,2-6.2,0.7
	c-0.9-0.5-1.6-1.3-2.2-2c-0.7-0.7-1.4-1.4-2-2.1c-0.7-0.7-1.5-1.5-2.2-2.2c-1.8-1.9-1.8-4.9,0-6.9c0.8-0.9,1.7-1.8,2.6-2.6
	c0.4-0.4,0.4-0.7,0.2-1.1c-0.6-1.2-1.1-2.5-1.5-3.7c-0.2-0.5-0.4-0.7-1-0.7c-1.1,0-2.1-0.1-3.2,0c-2.7,0.2-5.3-2.3-5.3-4.9
	c0-2.8-0.2-5.7,0.1-8.5c0.2-2.5,2.4-4.4,4.8-4.4c1.2,0,2.4,0,3.6,0c0.5,0,0.8-0.2,1-0.7c0.4-1.3,1-2.6,1.6-3.8
	c0.2-0.4,0.1-0.7-0.2-1c-0.8-0.8-1.5-1.5-2.3-2.3c-2.3-2.3-2.3-5.4,0-7.7c1.7-1.8,3.3-3.4,5-5.1c2.1-2.1,5.2-2.1,7.4,0.1
	c0.8,0.8,1.6,1.6,2.4,2.5c0.3,0.3,0.5,0.4,0.9,0.2c1.2-0.6,2.6-1.2,3.9-1.7c0.4-0.1,0.5-0.4,0.5-0.8c0-1.2,0-2.4,0-3.6
	c0-2.8,2.3-5.2,5.1-5.2c2.5,0,5,0,7.5,0c2.8,0,5,2.3,5,5.1c0,1.2,0,2.4,0,3.6c0,0.4,0.2,0.7,0.6,0.8c1.3,0.4,2.6,1,3.8,1.6
	c0.4,0.3,0.7,0.2,1.1-0.2c0.8-0.9,1.6-1.7,2.5-2.5c2-2,5-2,7.1,0c1.8,1.8,3.6,3.5,5.4,5.5c1.9,2.2,2.1,5.1,0,7.3
	c-0.8,0.8-1.6,1.7-2.4,2.5c-0.4,0.4-0.4,0.6-0.2,1.1c0.6,1.2,1.1,2.5,1.6,3.8c0.2,0.4,0.4,0.7,0.9,0.6c1.1,0,2.3,0,3.4,0
	c2.8,0,5,2.3,5,5.1C397,41.8,397,43.1,397,44.4L397,44.4z"/>
<path class="st0" d="M335.6,44.3c0-13.6,10.7-24.5,24-24.4c13.2,0,23.9,10.8,23.9,24.2c0.1,13.6-10.6,24.6-24,24.6
	C346,68.7,335.5,57.4,335.6,44.3L335.6,44.3z"/>
<path class="st1" d="M359.2,64c-10.7-0.2-19.3-9.2-19.1-20c0.2-10.9,9.1-19.6,19.8-19.5c10.8,0.2,19.5,9.3,19.2,20.5
	C378.6,55.9,369.8,64.3,359.2,64L359.2,64z"/>
<path class="st0" d="M351.8,44.4c0-3.4,0-7,0-10.4c0-0.6,0.1-1.2,0.4-1.8c0.6-1,1.8-1.2,2.8-0.6c1.3,0.9,2.6,1.8,3.9,2.6
	c3.9,2.6,7.7,5.4,11.5,8c0.6,0.4,1.1,0.9,1.2,1.8c0.1,1-0.4,1.6-1.1,2.1c-0.8,0.5-1.6,1.1-2.4,1.7c-4.3,3-8.6,6-12.9,9
	c-1.1,0.8-2.1,0.7-3-0.2c-0.4-0.4-0.5-1.1-0.5-1.7C351.8,51.5,351.8,47.9,351.8,44.4L351.8,44.4z"/>
<path class="st1" d="M22.1,65.9c-1.3,0-2.3-0.4-3-1.1s-1-1.7-1-3.1V27.3c0-1.3,0.3-2.4,1-3.1s1.7-1.1,3-1.1h21.3
	c1,0,1.8,0.3,2.3,0.8s0.8,1.3,0.8,2.2s-0.3,1.8-0.8,2.3s-1.3,0.8-2.3,0.8h-18V41h16.7c1,0,1.8,0.3,2.3,0.8s0.8,1.3,0.8,2.3
	s-0.3,1.8-0.8,2.3s-1.3,0.8-2.3,0.8H25.4v12.4h18c1,0,1.8,0.3,2.3,0.8s0.8,1.3,0.8,2.3s-0.3,1.8-0.8,2.3s-1.3,0.8-2.3,0.8L22.1,65.9
	L22.1,65.9z"/>
<path class="st1" d="M64,66.5c-2.5,0-4.8-0.6-6.7-1.9c-1.9-1.2-3.4-3-4.5-5.4c-1.1-2.3-1.6-5.1-1.6-8.2s0.5-5.9,1.6-8.2
	s2.6-4,4.5-5.3c1.9-1.2,4.2-1.9,6.7-1.9s4.5,0.6,6.4,1.8c1.8,1.2,3,2.8,3.7,4.8h-0.7V26.5c0-1.2,0.3-2.2,1-2.8c0.6-0.6,1.6-1,2.7-1
	s2.1,0.3,2.8,1c0.7,0.6,1,1.6,1,2.8v36c0,1.2-0.3,2.2-1,2.9s-1.6,1-2.7,1c-1.2,0-2.1-0.3-2.7-1s-1-1.6-1-2.9v-4.7l0.7,1.8
	c-0.6,2.1-1.8,3.8-3.6,5C68.7,65.8,66.5,66.5,64,66.5L64,66.5z M66.1,60.7c1.5,0,2.8-0.4,3.9-1.1c1.1-0.7,2-1.8,2.6-3.2
	s0.9-3.2,0.9-5.4c0-3.2-0.7-5.6-2-7.2c-1.4-1.6-3.1-2.4-5.4-2.4c-1.5,0-2.8,0.4-3.9,1.1c-1.1,0.7-2,1.8-2.6,3.2s-0.9,3.2-0.9,5.4
	c0,3.2,0.7,5.6,2,7.2C62.1,59.9,63.9,60.7,66.1,60.7L66.1,60.7z"/>
<path class="st1" d="M92.3,30.2c-1.4,0-2.5-0.4-3.2-1.1c-0.8-0.7-1.2-1.7-1.2-2.9s0.4-2.3,1.2-3s1.9-1,3.2-1s2.5,0.3,3.3,1
	s1.1,1.7,1.1,3s-0.4,2.2-1.1,2.9C94.8,29.8,93.7,30.2,92.3,30.2z M92.3,66.3c-1.2,0-2.1-0.4-2.7-1.1s-1-1.7-1-3V39.9
	c0-1.3,0.3-2.4,1-3.1c0.6-0.7,1.6-1.1,2.7-1.1c1.2,0,2.1,0.4,2.8,1.1c0.7,0.7,1,1.7,1,3.1v22.2c0,1.3-0.3,2.3-1,3
	S93.5,66.3,92.3,66.3z"/>
<path class="st1" d="M117.2,66.5c-2.6,0-4.7-0.4-6.5-1.3c-1.7-0.9-3-2.2-3.9-3.9c-0.8-1.7-1.2-3.8-1.2-6.4v-13h-3.1
	c-1,0-1.7-0.3-2.2-0.8s-0.8-1.2-0.8-2.1c0-0.9,0.3-1.6,0.8-2.1s1.2-0.7,2.2-0.7h3.1v-5.5c0-1.2,0.3-2.2,1-2.8c0.7-0.6,1.6-1,2.8-1
	c1.2,0,2.1,0.3,2.7,1c0.6,0.6,1,1.6,1,2.8v5.5h6.3c1,0,1.7,0.2,2.2,0.7s0.8,1.2,0.8,2.1c0,0.9-0.3,1.6-0.8,2.1s-1.2,0.8-2.2,0.8
	h-6.3v12.5c0,1.9,0.4,3.4,1.2,4.4s2.2,1.5,4.1,1.5c0.7,0,1.3-0.1,1.8-0.2c0.5-0.1,1-0.2,1.4-0.2c0.5,0,0.9,0.1,1.2,0.5
	c0.3,0.3,0.5,1,0.5,2.1c0,0.8-0.1,1.5-0.4,2.2c-0.3,0.6-0.7,1.1-1.4,1.3c-0.5,0.2-1.2,0.3-2,0.5C118.6,66.4,117.8,66.5,117.2,66.5
	L117.2,66.5z"/>
<path class="st1" d="M157,66.5c-3,0-5.6-0.5-7.8-1.5s-3.9-2.3-5-4c-1.2-1.7-1.8-3.7-1.8-6c0-1.4,0.2-2.7,0.6-3.8
	c0.4-1.2,0.9-2.3,1.7-3.3c0.7-1,1.6-2,2.7-2.9c1.1-0.9,2.3-1.8,3.6-2.6l2-1.2l-1.1,1.6c-1.7-1.8-3-3.5-3.8-5.1s-1.2-3.2-1.2-4.9
	c0-2,0.5-3.8,1.4-5.3c1-1.5,2.3-2.7,4.1-3.6c1.7-0.8,3.8-1.3,6.1-1.3c3.3,0,5.9,0.8,7.8,2.5c1.9,1.7,2.9,3.9,2.9,6.8
	c0,1.5-0.3,3-0.9,4.4c-0.6,1.4-1.6,2.7-2.9,3.9c-1.3,1.2-3.1,2.5-5.3,3.7l0.1-1.8l10.1,11h-1.6c0.5-0.9,1-1.9,1.4-2.9
	c0.4-1.1,0.7-2.2,1-3.5c0.3-1.2,0.5-2.5,0.7-3.8c0.2-1,0.5-1.8,1-2.3s1.2-0.8,2.2-0.8s1.8,0.3,2.3,0.9c0.5,0.6,0.7,1.4,0.6,2.5
	c-0.2,1.9-0.5,3.7-1,5.4s-1,3.3-1.7,4.8s-1.4,2.8-2.3,4.1l-0.1-1.9l5.7,5.8c0.8,0.8,1.1,1.5,1.1,2.3c0,0.8-0.3,1.4-0.9,1.9
	c-0.6,0.5-1.4,0.8-2.4,0.8c-0.9,0-1.6-0.2-2.2-0.5c-0.6-0.3-1.2-0.9-1.9-1.5l-3.7-3.9h1.7c-1.7,1.9-3.8,3.4-6.2,4.5
	C162.1,65.9,159.6,66.5,157,66.5L157,66.5z M157.4,60.5c1.9,0,3.6-0.4,5.1-1.1c1.5-0.8,2.9-1.9,4.1-3.4l-0.2,1.9L154.1,45l3.1,0.3
	l-1.7,1c-1.4,0.8-2.4,1.6-3.3,2.4c-0.8,0.8-1.4,1.6-1.8,2.5c-0.4,0.9-0.6,1.9-0.6,3.1c0,1.9,0.7,3.4,2,4.5
	C153.1,59.9,155,60.5,157.4,60.5L157.4,60.5z M158.6,27.9c-1.4,0-2.6,0.4-3.5,1.2s-1.3,2-1.3,3.4c0,0.8,0.1,1.5,0.4,2.2
	c0.2,0.7,0.7,1.4,1.2,2.2s1.4,1.7,2.4,2.9l-1.7-0.1c1.7-1,3-1.8,4-2.6s1.7-1.5,2.1-2.3c0.4-0.8,0.7-1.6,0.7-2.5
	c0-1.4-0.4-2.4-1.2-3.1C161,28.3,159.9,27.9,158.6,27.9L158.6,27.9z"/>
<path class="st1" d="M207,66.3c-1.2,0-2.2-0.4-2.8-1.1c-0.7-0.7-1-1.7-1-2.9V27.1c0-1.3,0.3-2.3,1-2.9c0.7-0.7,1.6-1,2.9-1h14.4
	c4.6,0,8.2,1.1,10.7,3.4S236,32,236,36c0,2.6-0.6,4.9-1.7,6.8c-1.1,1.9-2.8,3.4-4.9,4.4c-2.1,1-4.8,1.5-7.8,1.5l0.5-0.9h2
	c1.6,0,3.1,0.4,4.3,1.2s2.3,2.1,3.2,3.8l4.5,8.4c0.5,0.8,0.7,1.7,0.7,2.5c0,0.8-0.3,1.5-0.9,2c-0.6,0.5-1.4,0.8-2.4,0.8
	s-2-0.2-2.6-0.7c-0.7-0.5-1.3-1.2-1.8-2.2l-6-11.3c-0.7-1.4-1.6-2.3-2.5-2.8c-1-0.5-2.2-0.7-3.7-0.7h-5.7v13.6c0,1.2-0.3,2.2-1,2.9
	S208.2,66.3,207,66.3L207,66.3z M210.8,43h9.3c2.7,0,4.8-0.6,6.2-1.7c1.4-1.2,2.1-2.9,2.1-5.2s-0.7-4-2.1-5.1
	c-1.4-1.2-3.5-1.7-6.2-1.7h-9.3V43z"/>
<path class="st1" d="M253.9,66.5c-2.4,0-4.4-0.5-6-1.4s-2.8-2.3-3.6-4.1s-1.2-4.1-1.2-6.8V39.6c0-1.3,0.3-2.3,1-2.9
	c0.6-0.6,1.6-0.9,2.7-0.9c1.2,0,2.1,0.3,2.8,0.9c0.7,0.6,1,1.6,1,2.9v14.8c0,2.1,0.4,3.7,1.2,4.7s2.2,1.5,4,1.5c2,0,3.6-0.7,4.9-2.1
	c1.3-1.4,1.9-3.2,1.9-5.5V39.6c0-1.3,0.3-2.3,1-2.9c0.6-0.6,1.6-0.9,2.7-0.9s2.1,0.3,2.8,0.9c0.7,0.6,1,1.6,1,2.9v22.9
	c0,2.6-1.2,3.9-3.6,3.9c-1.2,0-2-0.3-2.7-1c-0.6-0.7-1-1.6-1-2.9v-4.6l0.8,1.8c-0.8,2.2-2.1,3.9-3.8,5
	C258.2,65.9,256.2,66.5,253.9,66.5L253.9,66.5z"/>
<path class="st1" d="M281.6,66.3c-1.2,0-2.1-0.3-2.7-1s-1-1.6-1-2.9V39.6c0-1.2,0.3-2.2,1-2.8c0.6-0.6,1.5-1,2.7-1s2,0.3,2.7,1
	c0.6,0.6,1,1.6,1,2.8v4.1l-0.7-1.5c0.9-2.1,2.2-3.8,4.1-4.9c1.9-1.1,3.9-1.7,6.3-1.7c2.3,0,4.3,0.4,5.8,1.3c1.5,0.9,2.6,2.2,3.4,4
	s1.1,4.1,1.1,6.8v14.7c0,1.2-0.3,2.2-1,2.9c-0.6,0.7-1.6,1-2.7,1s-2.1-0.3-2.8-1c-0.7-0.7-1-1.6-1-2.9V48.2c0-2.3-0.4-4-1.3-5
	c-0.9-1.1-2.2-1.6-4-1.6c-2.2,0-3.9,0.7-5.2,2.1c-1.3,1.4-1.9,3.2-1.9,5.5v13.3C285.4,65,284.1,66.3,281.6,66.3L281.6,66.3z"/>
</svg>
